<svg width="20" height="20" viewBox="0 0 20 20" fill="none" xmlns="http://www.w3.org/2000/svg">
<path d="M2.94008 17.8314L1.36914 0.210938H18.6316L17.0591 17.8288L9.98992 19.7886L2.94008 17.8314Z" fill="#1572B6"/>
<path d="M10 18.2914L15.7123 16.7077L17.0563 1.65234H10V18.2914Z" fill="#33A9DC"/>
<path d="M10 8.03617H12.8597L13.0572 5.8232H10V3.66211H15.4191L15.3672 4.24195L14.8359 10.1973H10V8.03617Z" fill="white"/>
<path d="M10.0127 13.648L10.0031 13.6508L7.59641 13.0009L7.4425 11.2773H5.27344L5.57609 14.6706L10.0028 15.8992L10.0127 15.8964V13.648Z" fill="#EBEBEB"/>
<path d="M12.6765 10.1055L12.4162 12.9995L10.0059 13.6502V15.8986L14.4362 14.6708L14.4687 14.3056L14.8446 10.1055H12.6765Z" fill="white"/>
<path d="M10.0072 3.66211V5.8232H4.78719L4.74391 5.33758L4.64547 4.24195L4.59375 3.66211H10.0072ZM9.99984 8.03648V10.1976H7.62344L7.58016 9.71195L7.48156 8.61633L7.43 8.03648H9.99984Z" fill="#EBEBEB"/>
</svg>
