<svg width="20" height="20" viewBox="0 0 20 20" fill="none" xmlns="http://www.w3.org/2000/svg">
<path d="M8.19152 6.3252C8.87235 6.32936 9.38902 6.52353 9.72652 6.90186C10.0457 7.26103 10.199 7.7802 10.1824 8.44353L10.1707 8.49436C10.1601 8.51816 10.1428 8.53834 10.1209 8.55241C10.099 8.56648 10.0734 8.57382 10.0474 8.57353H8.66485C8.62151 8.57333 8.57994 8.55624 8.54898 8.52591C8.51802 8.49557 8.5001 8.45436 8.49902 8.41103C8.50013 8.05881 8.3918 7.86158 8.17402 7.81936L8.07402 7.8102C7.78902 7.8102 7.60402 7.98603 7.59902 8.2927C7.59318 8.63436 7.78652 8.94519 8.33652 9.47853C9.05985 10.1585 9.35068 10.761 9.33652 11.556C9.31402 12.8427 8.43902 13.6752 7.10902 13.6752C6.42985 13.6752 5.91068 13.4927 5.56485 13.1344C5.21485 12.7702 5.05485 12.236 5.08818 11.546C5.08975 11.5109 5.1043 11.4777 5.12902 11.4527C5.15404 11.4285 5.18754 11.415 5.22235 11.4152H6.65235C6.67221 11.4164 6.69168 11.4212 6.70985 11.4294C6.7427 11.4465 6.76753 11.4758 6.77902 11.511C6.78346 11.5277 6.78402 11.5444 6.78068 11.561C6.76485 11.8094 6.80902 11.9952 6.90652 12.0985C6.93991 12.133 6.98035 12.1599 7.02508 12.1773C7.06981 12.1947 7.11777 12.2022 7.16568 12.1994C7.42985 12.1994 7.58485 12.0119 7.59068 11.6869C7.59568 11.406 7.50568 11.1585 7.02235 10.6602C6.39652 10.0485 5.83568 9.41686 5.85318 8.42353C5.85532 8.14547 5.91355 7.87071 6.02438 7.61569C6.13521 7.36067 6.29636 7.13063 6.49818 6.93936C6.92652 6.53769 7.51152 6.3252 8.19152 6.3252ZM3.37235 6.34853C3.99485 6.34353 4.48402 6.5352 4.82402 6.91936C5.18402 7.3252 5.36652 7.93686 5.36735 8.7377C5.36691 8.77291 5.35256 8.80653 5.32742 8.83119C5.30228 8.85586 5.2684 8.86958 5.23318 8.86936H3.73235C3.70616 8.86816 3.68128 8.8575 3.66235 8.83936C3.64433 8.82009 3.63396 8.7949 3.63318 8.76853C3.62152 8.24936 3.47652 7.9802 3.18985 7.94853L3.13068 7.9452C2.55568 7.94603 2.21652 8.72686 2.03652 9.1602C1.78201 9.7665 1.66093 10.4205 1.68152 11.0777C1.69402 11.3827 1.74318 11.811 2.03152 11.9885C2.28818 12.146 2.65402 12.0419 2.87568 11.8669C3.09652 11.6927 3.27485 11.391 3.34985 11.116C3.36096 11.0771 3.36124 11.0499 3.35068 11.0344C3.34513 11.0283 3.33624 11.0241 3.32402 11.0219L2.90402 11.0185C2.88364 11.0179 2.8636 11.0132 2.84512 11.0046C2.82664 10.996 2.8101 10.9837 2.79652 10.9685C2.78575 10.9569 2.77853 10.9424 2.77568 10.9269C2.77124 10.9116 2.77124 10.8954 2.77568 10.8802L3.03902 9.7352C3.04674 9.70541 3.06343 9.67872 3.08684 9.65875C3.11024 9.63877 3.13922 9.62648 3.16985 9.62353V9.62103H5.69902L5.71652 9.62186C5.78235 9.63019 5.82902 9.69186 5.82818 9.75853V9.76186L5.56485 10.9044C5.55068 10.9694 5.48568 11.0169 5.41152 11.0169H5.09402C5.08255 11.0169 5.07141 11.0207 5.06225 11.0276C5.0531 11.0345 5.04641 11.0442 5.04318 11.0552C4.74985 12.0502 4.35235 12.7352 3.82818 13.146C3.38152 13.496 2.83235 13.6594 2.09735 13.6594C1.43735 13.6594 0.992351 13.4469 0.614851 13.0277C0.116518 12.4727 -0.0893153 11.566 0.0356847 10.4719C0.260685 8.41936 1.32402 6.34853 3.37235 6.34853ZM17.5132 6.45853C19.1882 6.45853 20.0249 7.21853 19.999 8.7177C19.9682 10.4744 18.8982 11.766 17.2874 12.0644C17.0579 12.1049 16.8265 12.1238 16.5932 12.121L15.8149 12.1177C15.8023 12.1181 15.7904 12.1232 15.7814 12.132C15.7725 12.1408 15.7671 12.1527 15.7665 12.1652C15.7665 12.1735 15.7687 12.1816 15.7732 12.1894C15.7784 12.1961 15.7845 12.202 15.7915 12.2069L16.4532 12.5519C16.5076 12.5813 16.5287 12.6269 16.5165 12.6885L16.344 13.466C16.3299 13.531 16.2773 13.5685 16.2015 13.5685H14.7824C14.762 13.568 14.742 13.5638 14.7232 13.556C14.705 13.5469 14.6886 13.5344 14.6749 13.5194C14.6645 13.5072 14.6573 13.4928 14.6536 13.4773C14.65 13.4618 14.6501 13.4456 14.654 13.4302L16.234 6.5627C16.2499 6.49103 16.3174 6.45936 16.3774 6.45936L17.5132 6.45853ZM14.394 6.46853C14.4095 6.47548 14.4238 6.48475 14.4365 6.49603C14.4482 6.50891 14.4577 6.52353 14.4649 6.53936C14.4704 6.5552 14.4735 6.57177 14.474 6.58853L14.4649 13.4327C14.4674 13.4488 14.4666 13.4653 14.4623 13.481C14.4575 13.4979 14.449 13.5135 14.4373 13.5267C14.4256 13.5398 14.4111 13.5501 14.3949 13.5569C14.3782 13.5646 14.3599 13.5683 14.3415 13.5677H12.8307C12.7962 13.5676 12.763 13.5542 12.7382 13.5302C12.7269 13.5175 12.7176 13.5032 12.7107 13.4877C12.7048 13.4716 12.7014 13.4548 12.7007 13.4377L12.7332 12.7735C12.7349 12.701 12.7332 12.681 12.6907 12.676L12.634 12.6744H11.2057C11.1024 12.6744 11.0949 12.6835 11.0582 12.7785L10.7615 13.4927C10.7349 13.5427 10.6815 13.5677 10.6015 13.5677H9.10568C9.01485 13.5677 8.94985 13.4777 8.98402 13.3935L12.0824 6.56103C12.1032 6.5202 12.1349 6.45853 12.2065 6.45853H14.3449C14.3615 6.45853 14.3779 6.46186 14.394 6.46853ZM12.9165 8.32103C12.9099 8.29436 12.8882 8.29686 12.8707 8.33186C12.8583 8.35712 12.8471 8.38298 12.8374 8.40936L11.7674 11.0619L11.754 11.1019C11.7529 11.1074 11.7526 11.1127 11.7532 11.1177L11.759 11.1319C11.7623 11.1362 11.7666 11.1396 11.7715 11.1419C11.7758 11.1446 11.7806 11.1463 11.7857 11.1469L12.679 11.1585C12.7782 11.1502 12.7832 11.1452 12.7932 11.0444C12.7949 11.0085 12.9215 8.35186 12.9165 8.32103ZM16.7598 7.9852C16.7474 7.98559 16.7355 7.99064 16.7265 7.99936C16.7175 8.00818 16.7121 8.02009 16.7115 8.0327C16.7117 8.04134 16.714 8.04979 16.7184 8.05724C16.7228 8.06469 16.729 8.07088 16.7365 8.07519L17.4382 8.44603C17.4732 8.4652 17.474 8.49853 17.4624 8.55603C17.4565 8.58186 17.0124 10.5352 17.0132 10.5369C17.0157 10.5394 17.029 10.546 17.0957 10.546H17.1257C17.8715 10.516 18.2782 9.63436 18.2932 8.77853C18.3007 8.31603 18.1432 8.03186 17.8574 7.9902L17.7982 7.9852H16.7598Z" fill="white"/>
</svg>
