<svg width="20" height="20" viewBox="0 0 20 20" fill="none" xmlns="http://www.w3.org/2000/svg">
<g clip-path="url(#clip0_388_38)">
<path d="M0.219727 0.219727H19.7797V19.7799H0.219727V0.219727Z" fill="#F0DB4F"/>
<path d="M18.1796 15.1153C18.0363 14.2229 17.4545 13.4734 15.7309 12.7745C15.1321 12.4993 14.4646 12.3023 14.2657 11.8485C14.1951 11.5845 14.1857 11.4357 14.2304 11.2759C14.3587 10.7571 14.9779 10.5954 15.4687 10.7442C15.7848 10.8501 16.084 11.0937 16.2645 11.4823C17.1085 10.9357 17.1068 10.9393 17.6962 10.5637C17.4804 10.2292 17.3652 10.0748 17.224 9.93166C16.7163 9.36463 16.0246 9.0726 14.9184 9.09494L14.3421 9.16947C13.7899 9.309 13.2637 9.59885 12.9551 9.98744C12.0291 11.0381 12.2932 12.8768 13.4199 13.6335C14.5299 14.4667 16.1605 14.6562 16.3688 15.4353C16.5715 16.389 15.6679 16.6978 14.7698 16.5881C14.1079 16.4504 13.7398 16.114 13.3418 15.5023C12.6093 15.9262 12.6093 15.9262 11.8562 16.3593C12.0348 16.7498 12.2224 16.9265 12.5218 17.2648C13.9387 18.702 17.4843 18.6313 18.1202 16.456C18.146 16.3813 18.3173 15.8832 18.1796 15.1153ZM10.8538 9.2101H9.0243L9.0168 13.9401C9.0168 14.946 9.06883 15.8682 8.90523 16.1509C8.63758 16.7068 7.94398 16.6379 7.62789 16.5301C7.30617 16.372 7.14258 16.1471 6.95305 15.8293C6.90102 15.7381 6.86195 15.6674 6.84883 15.662L5.36133 16.5729C5.60867 17.0806 5.97305 17.5212 6.43977 17.8074C7.13695 18.2259 8.07398 18.3542 9.05398 18.1292C9.6918 17.9434 10.2421 17.5585 10.5302 16.9728C10.9468 16.2048 10.8574 15.2753 10.8537 14.2471C10.863 12.5698 10.8538 10.8928 10.8538 9.2101Z" fill="#323330"/>
</g>
<defs>
<clipPath id="clip0_388_38">
<rect width="20" height="20" fill="white"/>
</clipPath>
</defs>
</svg>
