<svg width="20" height="20" viewBox="0 0 20 20" fill="none" xmlns="http://www.w3.org/2000/svg">
<g clip-path="url(#clip0_401_82)">
<path d="M7.49414 12.347L7.5243 12.3616L7.57805 12.3876C7.64659 12.4204 7.71581 12.4524 7.7857 12.4837L7.82961 12.5032C7.90971 12.5383 7.99049 12.5719 8.07195 12.604L8.13101 12.6271C8.20653 12.6566 8.28273 12.6849 8.35961 12.712L8.38836 12.7218C8.47258 12.7512 8.55758 12.7785 8.64336 12.8052L8.70508 12.8235C8.79226 12.8499 8.87836 12.8813 8.96836 12.898C14.6799 13.9395 16.3388 9.4657 16.3388 9.4657C14.9454 11.281 12.4721 11.7599 10.1287 11.2268C10.0399 11.2068 9.95367 11.179 9.86711 11.1534L9.80195 11.1337C9.71755 11.1078 9.63358 11.0805 9.55008 11.0518L9.51554 11.0393C9.44113 11.013 9.36711 10.9855 9.29351 10.957L9.23133 10.9326C9.1508 10.9009 9.07089 10.8677 8.99164 10.8329L8.94367 10.8116C8.87591 10.7811 8.80851 10.7497 8.74148 10.7176L8.68289 10.6895C8.63039 10.6638 8.57836 10.6365 8.52648 10.6098L8.42211 10.5551C8.35903 10.5212 8.29657 10.4861 8.23476 10.4499L8.17148 10.4146C8.08931 10.366 8.00789 10.3161 7.92726 10.2649L7.86148 10.2212C7.80294 10.1836 7.74502 10.1451 7.68773 10.1057L7.63179 10.0663C7.57659 10.0273 7.52185 9.98768 7.46758 9.94758L7.39476 9.89242C7.3449 9.85451 7.29552 9.81597 7.24664 9.7768L7.18054 9.72367C7.11834 9.67262 7.05677 9.62079 6.99586 9.5682L6.9757 9.55117C6.90993 9.49357 6.84513 9.43486 6.78133 9.37508L6.72664 9.32242C6.67935 9.27763 6.63284 9.23211 6.58711 9.18586L6.53242 9.13117C6.47443 9.07177 6.41739 9.01145 6.36133 8.95023L6.35289 8.94117C6.29377 8.87645 6.2359 8.81061 6.1793 8.74367L6.13383 8.68961C6.09154 8.63878 6.04992 8.58732 6.00898 8.53523L5.9632 8.47836C5.9142 8.41505 5.86612 8.35103 5.81898 8.28633C4.51805 6.51164 4.05054 4.06398 5.09039 2.05383L4.16867 3.22289C2.98758 4.92023 3.13476 7.12867 4.03679 8.93242L4.10289 9.0607L4.14523 9.14195L4.17148 9.18867L4.21851 9.27289C4.24643 9.32227 4.27508 9.37143 4.30445 9.42039L4.35367 9.50148C4.38617 9.55388 4.4195 9.60596 4.45367 9.65773L4.49617 9.72367C4.54315 9.79388 4.59138 9.86346 4.64086 9.93242L4.64508 9.93789L4.66945 9.97086C4.71258 10.03 4.75653 10.0885 4.80133 10.1463L4.85101 10.2095C4.89091 10.2597 4.93153 10.3096 4.97289 10.3593L5.01945 10.4148C5.07487 10.4804 5.13148 10.5451 5.18929 10.6088L5.19273 10.6124L5.19929 10.6196C5.25554 10.6812 5.31336 10.7412 5.37179 10.8015L5.42711 10.8573C5.47242 10.9028 5.51836 10.9478 5.56492 10.9924L5.62133 11.046C5.6832 11.1045 5.74612 11.1618 5.81008 11.218L5.8132 11.2204L5.84601 11.2485C5.90258 11.2975 5.95982 11.3458 6.01773 11.3935L6.08883 11.4501C6.13601 11.4879 6.18372 11.5252 6.23195 11.562L6.30836 11.6201C6.36148 11.6591 6.41497 11.6975 6.46883 11.7352L6.52742 11.7768L6.54351 11.7882C6.59476 11.8235 6.64711 11.8573 6.69945 11.8912L6.76695 11.9362C6.84716 11.9872 6.92851 12.037 7.01101 12.0855L7.07851 12.1237C7.13893 12.1586 7.19997 12.1927 7.26164 12.2262L7.36289 12.2787L7.49414 12.347ZM8.07117 6.59773C8.19914 6.78117 8.34086 6.9993 8.5107 7.1468C8.57226 7.21461 8.63664 7.28055 8.70226 7.3457L8.75289 7.39539C8.81664 7.45737 8.88185 7.51799 8.94851 7.57727L8.95664 7.58414L8.95851 7.58617C9.03273 7.65117 9.1093 7.71367 9.18711 7.77523L9.23914 7.81586C9.31726 7.8757 9.39679 7.93445 9.47836 7.99055L9.48539 7.9957L9.59445 8.06758L9.64633 8.10195C9.70461 8.13914 9.76351 8.1757 9.82367 8.21039L9.84867 8.22492C9.90055 8.25482 9.95278 8.28404 10.0054 8.31258L10.061 8.3418L10.1707 8.39852L10.1873 8.40602C10.2625 8.4431 10.3387 8.47862 10.416 8.51258L10.4665 8.53336C10.5285 8.55982 10.5909 8.58518 10.6538 8.60945L10.7341 8.63883C10.7913 8.66008 10.8485 8.67945 10.9063 8.69867L10.9843 8.72367C11.0665 8.74914 11.1476 8.78133 11.2332 8.79555C15.6429 9.52633 16.661 6.13086 16.661 6.13086C15.7432 7.45258 13.966 8.08305 12.0695 7.59086C11.9856 7.56884 11.9024 7.54477 11.8198 7.51867L11.7446 7.49445C11.686 7.4755 11.6277 7.45544 11.5699 7.4343L11.4912 7.40492C11.4281 7.38068 11.3653 7.35542 11.303 7.32914L11.2524 7.30758C11.1749 7.27385 11.0982 7.23816 11.0224 7.20055L10.907 7.1418L10.8404 7.10758C10.7913 7.08081 10.7427 7.05336 10.6945 7.02523L10.6596 7.00539C10.6 6.97059 10.541 6.9347 10.4827 6.89773L10.4295 6.86195L10.3151 6.78633C10.2342 6.73024 10.1548 6.67215 10.0768 6.61211L10.0232 6.56977C9.19305 5.91461 8.53508 5.01867 8.22211 4.00289C7.89429 2.94977 7.96492 1.76727 8.53289 0.807734L7.83508 1.79305C6.98101 3.02195 7.02742 4.66742 7.69367 5.96727C7.80523 6.18565 7.93134 6.39628 8.07117 6.59773ZM12.7191 5.07727L12.8287 5.11523L12.877 5.13055C12.929 5.1468 12.9804 5.16586 13.034 5.17586C15.4688 5.64633 16.1295 3.92633 16.3052 3.6732C15.7266 4.50617 14.7545 4.70602 13.5615 4.41648C13.4638 4.39172 13.3674 4.36199 13.2727 4.32742C13.1561 4.28596 13.0418 4.2385 12.9301 4.18523C12.7181 4.08323 12.5168 3.96038 12.3291 3.81852C11.2616 3.00836 10.5985 1.46352 11.2951 0.205078L10.9182 0.724453C10.4148 1.46555 10.3652 2.38586 10.7146 3.20398C11.083 4.07273 11.838 4.75398 12.7191 5.07727ZM10.3688 15.0462H9.70851C9.68986 15.047 9.67196 15.0538 9.65742 15.0655C9.64289 15.0772 9.63248 15.0933 9.62773 15.1113L9.39336 16.1957L9.15898 17.2801C9.15438 17.2982 9.14403 17.3143 9.1295 17.3261C9.11497 17.3378 9.09703 17.3445 9.07836 17.3452H8.61101C8.14867 17.3452 8.20211 17.0254 8.2968 16.5873L8.29961 16.574L8.30992 16.5187L8.3118 16.5084L8.33289 16.3959L8.35555 16.2754L8.37961 16.1527L8.48617 15.6321L8.59289 15.1115C8.59493 15.1035 8.59507 15.0952 8.59331 15.0872C8.59155 15.0792 8.58793 15.0717 8.58275 15.0653C8.57757 15.059 8.57097 15.0539 8.56347 15.0505C8.55598 15.0472 8.54781 15.0456 8.53961 15.046H7.86195C7.84329 15.0467 7.82535 15.0534 7.81086 15.0652C7.79637 15.077 7.78611 15.0932 7.78164 15.1113L7.63586 15.8026L7.49023 16.494L7.47648 16.5593C7.30867 17.3254 7.35305 18.0562 8.26523 18.0791L8.2918 18.0796H9.72351C9.74218 18.0789 9.76013 18.0722 9.77466 18.0604C9.78919 18.0487 9.79953 18.0326 9.80414 18.0145L10.1129 16.563L10.4216 15.1115C10.4293 15.0755 10.4055 15.0463 10.3688 15.0462ZM3.29758 15.0385H2.57258C2.55383 15.0392 2.5358 15.0459 2.52115 15.0576C2.50649 15.0693 2.49598 15.0854 2.49117 15.1035L2.42242 15.407L2.35367 15.7104C2.3457 15.7462 2.36898 15.7754 2.4057 15.7754H3.13633C3.15501 15.7746 3.17295 15.7679 3.18751 15.7561C3.20208 15.7444 3.21251 15.7283 3.21726 15.7102L3.28367 15.407L3.35008 15.1037C3.35773 15.0679 3.3343 15.0385 3.29758 15.0385ZM3.08726 15.9829H2.35648C2.33774 15.9836 2.31971 15.9903 2.30505 16.002C2.2904 16.0137 2.27989 16.0298 2.27508 16.0479L2.17242 16.5026L2.06992 16.9571L2.04133 17.0874L1.94273 17.5515L1.8443 18.0157C1.83664 18.0515 1.82086 18.1093 1.80914 18.144C1.80914 18.144 1.67258 18.5502 1.44305 18.5455L1.4143 18.5449L1.2157 18.5413C1.19706 18.5418 1.1789 18.5483 1.16418 18.5597C1.14945 18.5711 1.13876 18.587 1.13367 18.6049L1.05789 18.9235L0.982264 19.242C0.97367 19.2776 0.996795 19.307 1.0332 19.3076C1.16336 19.3091 1.45492 19.3124 1.63133 19.3124C2.20461 19.3124 2.50695 18.9948 2.70054 18.0807L2.92726 17.0316L3.13992 16.0477C3.14758 16.0123 3.12383 15.9829 3.08726 15.9829ZM16.543 15.737L16.5127 15.6118L16.4829 15.4837L16.4677 15.419C16.4084 15.1882 16.2341 15.0552 15.8557 15.0552L15.2666 15.0546L14.7241 15.0538H14.1137C14.095 15.0545 14.077 15.0612 14.0625 15.0729C14.048 15.0847 14.0377 15.1009 14.0332 15.119L14.0062 15.2465L13.9743 15.3971L13.9654 15.4395L13.6905 16.727L13.4296 17.9491C13.4218 17.9851 13.4193 18.0291 13.4237 18.047C13.428 18.0649 13.4985 18.0796 13.5351 18.0796H14.0857C14.1224 18.0796 14.1688 18.073 14.1888 18.0649C14.2088 18.0568 14.2384 17.9848 14.2457 17.949L14.3435 17.4648L14.4415 16.9804L14.4548 16.9151L14.5735 16.3588L14.6784 15.8676C14.683 15.8495 14.6933 15.8334 14.7078 15.8217C14.7223 15.8099 14.7402 15.8032 14.7588 15.8024L16.4915 15.8016C16.5282 15.802 16.5513 15.7727 16.543 15.737ZM18.7735 14.6057L18.6401 14.6062H18.0855C18.0652 14.6073 18.0454 14.6128 18.0274 14.6223C18.0094 14.6318 17.9937 14.6451 17.9813 14.6613L16.7549 16.4579C16.7343 16.4882 16.7107 16.4838 16.7026 16.4482L16.6123 16.0524C16.6074 16.0343 16.5969 16.0181 16.5822 16.0064C16.5675 15.9947 16.5495 15.9881 16.5307 15.9874H15.7424C15.7057 15.9874 15.684 16.0162 15.694 16.0513L16.0473 17.289C16.0573 17.3243 16.058 17.3821 16.049 17.4177L15.8951 18.0166C15.8859 18.0523 15.9084 18.0812 15.9451 18.0812H16.7243C16.7431 18.0804 16.7613 18.0738 16.7762 18.0622C16.7911 18.0506 16.802 18.0347 16.8074 18.0166L16.9615 17.4177C16.9736 17.3755 16.9928 17.3356 17.0182 17.2998L19.0091 14.6574C19.0313 14.628 19.0193 14.6041 18.9827 14.6045L18.7735 14.6057ZM12.5101 16.1555C12.5074 16.1744 12.498 16.1911 12.4838 16.2037C12.4695 16.2163 12.4512 16.2235 12.4321 16.2238H11.4326C11.3979 16.2238 11.3804 16.2004 11.3855 16.1713L11.3865 16.169L11.3863 16.166L11.3909 16.149C11.4863 15.8952 11.6807 15.7287 12.0462 15.7287C12.4577 15.7285 12.538 15.9295 12.5101 16.1555ZM12.2168 15.0018C10.9338 15.0018 10.6298 15.7805 10.4591 16.5666C10.2887 17.3679 10.3032 18.1168 11.631 18.1168H11.792L11.832 18.1166H11.8413L12.0007 18.1162H12.0035C12.3541 18.1148 12.7059 18.1121 12.8482 18.111C12.8668 18.1102 12.8846 18.1033 12.8989 18.0915C12.9132 18.0796 12.9234 18.0635 12.9277 18.0454L12.9815 17.7827L12.992 17.7316L13.056 17.4182C13.0581 17.4103 13.0582 17.4019 13.0564 17.3939C13.0547 17.3859 13.0511 17.3784 13.0459 17.3721C13.0407 17.3657 13.0341 17.3607 13.0266 17.3573C13.0191 17.354 13.0109 17.3525 13.0027 17.3529H11.8091C11.3343 17.3529 11.1934 17.2268 11.2454 16.8559H13.1534H13.1545C13.1696 16.8553 13.1842 16.8503 13.1965 16.8416C13.2089 16.8328 13.2184 16.8207 13.224 16.8066L13.2285 16.7901C13.5118 15.7215 13.4304 15.002 12.2168 15.0018ZM6.15273 16.1515L6.13461 16.2154L5.99055 16.7262L5.84648 17.2366C5.84052 17.2547 5.82921 17.2705 5.81405 17.282C5.7989 17.2934 5.78062 17.3 5.76164 17.3009H4.99914C4.4207 17.3009 4.27976 16.8484 4.4207 16.1812C4.56148 15.4987 4.83758 15.0745 5.40695 15.0315C6.18508 14.9727 6.3407 15.5199 6.15273 16.1515ZM6.67586 17.2616C6.67586 17.2616 7.03539 16.3885 7.11695 15.8845C7.22836 15.2096 6.89039 14.2305 5.58508 14.2305C4.28726 14.2305 3.72351 15.1651 3.50851 16.1812C3.29351 17.2046 3.57523 18.102 4.8657 18.0946L5.88383 18.0909L6.83523 18.0874C6.85409 18.0865 6.87221 18.0798 6.88713 18.0682C6.90205 18.0566 6.91306 18.0408 6.91867 18.0227L7.08445 17.3905C7.09367 17.3549 7.07133 17.3259 7.03461 17.3255L6.8757 17.3246L6.7168 17.3237C6.6857 17.3235 6.66789 17.3032 6.67164 17.2765L6.67586 17.2616ZM13.1009 16.6771C13.1009 16.6829 13.0997 16.6885 13.0976 16.6939C13.0954 16.6992 13.0922 16.704 13.0881 16.7081C13.084 16.7121 13.0792 16.7154 13.0739 16.7176C13.0686 16.7198 13.0629 16.7209 13.0572 16.7209C13.0514 16.7209 13.0457 16.7198 13.0404 16.7176C13.0351 16.7154 13.0303 16.7122 13.0262 16.7082C13.0222 16.7041 13.0189 16.6993 13.0167 16.694C13.0145 16.6887 13.0134 16.683 13.0134 16.6773C13.0133 16.6657 13.0179 16.6545 13.0261 16.6463C13.0343 16.6381 13.0454 16.6335 13.057 16.6334C13.0686 16.6334 13.0798 16.638 13.088 16.6462C13.0962 16.6544 13.1008 16.6655 13.1009 16.6771Z" fill="white"/>
</g>
<defs>
<clipPath id="clip0_401_82">
<rect width="20" height="20" fill="white"/>
</clipPath>
</defs>
</svg>
