<svg width="20" height="20" viewBox="0 0 20 20" fill="none" xmlns="http://www.w3.org/2000/svg">
<g clip-path="url(#clip0_401_79)">
<path d="M4.33765 3.19035C3.1889 4.84113 3.33187 6.9891 4.20952 8.74348L4.27374 8.86816L4.31483 8.94723L4.34046 8.9927L4.38624 9.07457C4.41343 9.12249 4.44134 9.17035 4.46999 9.21816L4.5178 9.29691C4.54947 9.34785 4.58187 9.39853 4.61499 9.44895L4.6564 9.51285C4.70213 9.58118 4.74905 9.64895 4.79718 9.71613L4.80124 9.72129L4.82499 9.75332C4.86676 9.81082 4.90952 9.86775 4.95327 9.9241L5.00155 9.98551C5.04051 10.0344 5.08004 10.083 5.12015 10.1314L5.16546 10.1855C5.21937 10.2489 5.27452 10.3124 5.33062 10.3743L5.3339 10.3777L5.3403 10.3847C5.39515 10.4446 5.45124 10.5032 5.50827 10.5618L5.56202 10.616C5.60619 10.6602 5.65088 10.704 5.69608 10.7474L5.75093 10.7996C5.81124 10.8565 5.87249 10.9123 5.93468 10.9668L5.93749 10.9693L5.96952 10.9964C6.02442 11.044 6.08004 11.091 6.1364 11.1374L6.20546 11.1925C6.2514 11.2293 6.29775 11.2656 6.34452 11.3013L6.41905 11.3577C6.47062 11.3956 6.52265 11.433 6.57515 11.4697L6.63187 11.51L6.64765 11.5213C6.69733 11.5557 6.74843 11.5886 6.79921 11.6216L6.86483 11.6654C6.94296 11.7146 7.02218 11.7635 7.10218 11.8107L7.1678 11.8477C7.22666 11.8817 7.28603 11.9149 7.34593 11.9475L7.44452 11.9985L7.57202 12.0647L7.6014 12.0789L7.65358 12.1041C7.72025 12.1361 7.78759 12.1673 7.85562 12.1977L7.89827 12.2168C7.97608 12.2508 8.05463 12.2835 8.1339 12.3149L8.1914 12.3374C8.26483 12.3659 8.33895 12.3934 8.41374 12.4197L8.44171 12.4294C8.52358 12.4582 8.6064 12.4846 8.68968 12.5107L8.74952 12.5285C8.83421 12.5541 8.91812 12.5844 9.00546 12.6007C14.5606 13.6136 16.1742 9.26254 16.1742 9.26254C14.8189 11.0282 12.4134 11.4938 10.1342 10.9754C10.0478 10.9558 9.96405 10.9288 9.87983 10.9041L9.8164 10.8847C9.73425 10.8597 9.65257 10.8331 9.5714 10.805L9.5378 10.793C9.46543 10.7674 9.39345 10.7406 9.32187 10.7129L9.26124 10.6891C9.1828 10.6582 9.1051 10.6259 9.02812 10.5922L8.98155 10.5714C8.9156 10.5418 8.85002 10.5113 8.78483 10.48L8.72796 10.4527C8.67687 10.4279 8.6264 10.4014 8.57577 10.3754L8.47437 10.3221C8.4128 10.2892 8.35202 10.2551 8.29202 10.2199L8.23046 10.1857C8.15055 10.1383 8.07138 10.0898 7.99296 10.04L7.9289 9.99738C7.87201 9.96083 7.8157 9.92338 7.75999 9.88504L7.70546 9.84676C7.65178 9.80894 7.59855 9.7705 7.54577 9.73145L7.47499 9.67785C7.42645 9.64087 7.37843 9.60332 7.33093 9.5652L7.26671 9.51363C7.20608 9.46405 7.14624 9.41358 7.08718 9.36223L7.06749 9.34582C7.00373 9.28957 6.94081 9.23238 6.87874 9.17426L6.82562 9.12301C6.77959 9.07952 6.73438 9.03519 6.68999 8.99004L6.63687 8.93691C6.5803 8.8791 6.52483 8.82046 6.47046 8.76098L6.46218 8.75207C6.40469 8.68916 6.34843 8.62514 6.29343 8.56004L6.24921 8.50754C6.20806 8.45805 6.16758 8.40799 6.1278 8.35738L6.08327 8.30191C6.03563 8.24034 5.98885 8.17809 5.94296 8.1152C4.67765 6.3891 4.22296 4.00848 5.23437 2.05348M7.90327 1.79941C7.07265 2.99473 7.11765 4.5952 7.76577 5.85926C7.87431 6.0717 7.99704 6.27659 8.13312 6.47254C8.25749 6.65113 8.39562 6.86332 8.56077 7.0066C8.62062 7.07254 8.68327 7.13691 8.74718 7.20004L8.79624 7.24863C8.85812 7.30895 8.92155 7.3679 8.98655 7.42551L8.99437 7.43223L8.99624 7.4341C9.06843 7.49738 9.14296 7.55816 9.21858 7.61816L9.26905 7.65754C9.34499 7.71566 9.42233 7.77285 9.50171 7.82738L9.50843 7.83254L9.61468 7.90238L9.66499 7.93566C9.72166 7.97212 9.77916 8.00733 9.83749 8.04129L9.86187 8.05566C9.91228 8.08462 9.96306 8.11301 10.0142 8.14082L10.0684 8.16895L10.175 8.22426L10.1911 8.2316C10.2641 8.26775 10.3383 8.30228 10.4136 8.3352L10.4626 8.35551C10.523 8.38113 10.5837 8.40577 10.645 8.42941L10.7231 8.45816C10.7787 8.47879 10.8344 8.4977 10.8906 8.51645L10.9662 8.54066C11.0461 8.56535 11.1251 8.59676 11.2083 8.61066C15.4973 9.32113 16.4875 6.01879 16.4875 6.01879C15.595 7.30441 13.8664 7.9177 12.0219 7.43895C11.9403 7.41744 11.8593 7.39404 11.7789 7.36879L11.7059 7.3452C11.6489 7.32684 11.5923 7.30736 11.5361 7.28676L11.4594 7.25816C11.398 7.23452 11.337 7.20988 11.2764 7.18426L11.2272 7.16348C11.1518 7.13058 11.0772 7.09588 11.0034 7.05941L10.8912 7.00238L10.8266 6.9691C10.7786 6.94306 10.7313 6.91629 10.6845 6.88879L10.6506 6.86957C10.5926 6.83577 10.5353 6.80076 10.4787 6.76457L10.4269 6.73004L10.3156 6.65629C10.2369 6.60171 10.1596 6.54518 10.0837 6.48676L10.0316 6.44551C9.22421 5.80816 8.58421 4.93691 8.27999 3.9491C7.96108 2.92457 8.02983 1.77457 8.58233 0.841133M10.9022 0.760195C10.4125 1.48082 10.3644 2.37598 10.7042 3.17191C11.0625 4.01676 11.7967 4.67941 12.6537 4.99379L12.7603 5.03051L12.8072 5.04551C12.8576 5.06144 12.9078 5.07988 12.96 5.08957C15.3283 5.54723 15.9706 3.87441 16.1416 3.62801C15.5789 4.43816 14.6333 4.6327 13.473 4.35098C13.378 4.32672 13.2844 4.29778 13.1923 4.26426C13.0788 4.22398 12.9675 4.17778 12.8589 4.12582C12.6527 4.02672 12.4569 3.90727 12.2744 3.76926C11.2361 2.98145 10.5912 1.47879 11.2687 0.254883" fill="#0868AC"/>
<path d="M10.3688 15.0461H9.70851C9.68986 15.0469 9.67196 15.0537 9.65742 15.0654C9.64289 15.0771 9.63248 15.0932 9.62773 15.1113L9.39336 16.1956L9.15898 17.28C9.15438 17.2981 9.14403 17.3142 9.1295 17.326C9.11497 17.3377 9.09703 17.3445 9.07836 17.3452H8.61101C8.14867 17.3452 8.20211 17.0253 8.2968 16.5872L8.29961 16.5739L8.30992 16.5186L8.3118 16.5083L8.33289 16.3958L8.35555 16.2753L8.37961 16.1527L8.48617 15.632L8.59289 15.1114C8.59493 15.1035 8.59507 15.0951 8.59331 15.0871C8.59155 15.0791 8.58793 15.0716 8.58275 15.0652C8.57757 15.0589 8.57097 15.0538 8.56347 15.0505C8.55598 15.0471 8.54781 15.0456 8.53961 15.0459H7.86195C7.84329 15.0466 7.82535 15.0534 7.81086 15.0651C7.79637 15.0769 7.78611 15.0931 7.78164 15.1113L7.63586 15.8025L7.49023 16.4939L7.48992 16.4948L7.47648 16.5592C7.30867 17.3253 7.35305 18.0561 8.26523 18.0791L8.2918 18.0795H9.72351C9.74218 18.0788 9.76013 18.0721 9.77466 18.0604C9.78919 18.0486 9.79953 18.0325 9.80414 18.0144L10.1129 16.563L10.4216 15.1114C10.4293 15.0755 10.4055 15.0463 10.3688 15.0461ZM3.29758 15.0384H2.57258C2.55383 15.0391 2.5358 15.0458 2.52115 15.0575C2.50649 15.0692 2.49598 15.0853 2.49117 15.1034L2.42242 15.4069L2.35367 15.7103C2.3457 15.7461 2.36898 15.7753 2.4057 15.7753H3.13633C3.15501 15.7745 3.17295 15.7678 3.18751 15.756C3.20208 15.7443 3.21251 15.7282 3.21726 15.7102L3.28367 15.4069L3.35008 15.1036C3.35773 15.0678 3.3343 15.0384 3.29758 15.0384ZM3.08726 15.9828H2.35648C2.33774 15.9835 2.31971 15.9902 2.30505 16.0019C2.2904 16.0136 2.27989 16.0297 2.27508 16.0478L2.17242 16.5025L2.06992 16.957L2.04133 17.0873L1.94273 17.5514L1.8443 18.0156C1.83664 18.0514 1.82086 18.1092 1.80914 18.1439C1.80914 18.1439 1.67258 18.5502 1.44305 18.5455L1.4143 18.5448L1.2157 18.5413C1.19706 18.5417 1.1789 18.5482 1.16418 18.5596C1.14945 18.5711 1.13876 18.5869 1.13367 18.6048L1.05789 18.9234L0.982264 19.2419C0.97367 19.2775 0.996795 19.3069 1.0332 19.3075C1.16336 19.3091 1.45492 19.3123 1.63133 19.3123C2.20461 19.3123 2.50695 18.9947 2.70054 18.0806L2.92726 17.0316L3.13992 16.0477C3.14758 16.0122 3.12383 15.9828 3.08726 15.9828ZM16.543 15.7369L16.5127 15.6117L16.4829 15.4836L16.4677 15.4189C16.4084 15.1881 16.2341 15.0552 15.8557 15.0552L15.2666 15.0545L14.7241 15.0538H14.1137C14.095 15.0544 14.077 15.0611 14.0625 15.0728C14.048 15.0846 14.0377 15.1008 14.0332 15.1189L14.0062 15.2464L13.9743 15.397L13.9654 15.4394L13.6905 16.7269L13.4296 17.9491C13.4218 17.985 13.4193 18.0291 13.4237 18.0469C13.428 18.0648 13.4985 18.0795 13.5351 18.0795H14.0857C14.1224 18.0795 14.1688 18.073 14.1888 18.0648C14.2088 18.0567 14.2384 17.9847 14.2457 17.9489L14.3435 17.4647L14.4415 16.9803L14.4416 16.9795L14.4548 16.915L14.5735 16.3588L14.6784 15.8675C14.683 15.8494 14.6933 15.8333 14.7078 15.8216C14.7223 15.8099 14.7402 15.8031 14.7588 15.8023L16.4915 15.8016C16.5282 15.8019 16.5513 15.7727 16.543 15.7369ZM18.7735 14.6056L18.6401 14.6061H18.0855C18.0652 14.6072 18.0454 14.6127 18.0274 14.6222C18.0094 14.6317 17.9937 14.6451 17.9813 14.6613L16.7549 16.4578C16.7343 16.4881 16.7107 16.4838 16.7026 16.4481L16.6123 16.0523C16.6074 16.0342 16.5969 16.0181 16.5822 16.0064C16.5675 15.9947 16.5495 15.988 16.5307 15.9873H15.7424C15.7057 15.9873 15.684 16.0161 15.694 16.0512L16.0473 17.2889C16.0573 17.3242 16.058 17.382 16.049 17.4177L15.8951 18.0166C15.8859 18.0522 15.9084 18.0811 15.9451 18.0811H16.7243C16.7431 18.0803 16.7613 18.0737 16.7762 18.0621C16.7911 18.0506 16.802 18.0346 16.8074 18.0166L16.9615 17.4177C16.9736 17.3754 16.9928 17.3355 17.0182 17.2997L19.0091 14.6573C19.0313 14.628 19.0193 14.6041 18.9827 14.6044L18.7735 14.6056ZM12.5101 16.1555V16.1548C12.5074 16.1737 12.498 16.191 12.4838 16.2036C12.4695 16.2163 12.4512 16.2234 12.4321 16.2238H11.4326C11.3979 16.2238 11.3804 16.2003 11.3855 16.1713L11.3865 16.1689L11.3859 16.1692L11.3863 16.1659L11.3909 16.1489C11.4863 15.8952 11.6807 15.7286 12.0462 15.7286C12.4577 15.7284 12.538 15.9294 12.5101 16.1555ZM12.2168 15.0017C10.9338 15.0017 10.6298 15.7805 10.4591 16.5666C10.2887 17.3678 10.3032 18.1167 11.631 18.1167H11.792L11.832 18.1166H11.8413L12.0007 18.1161H12.0035C12.3541 18.1147 12.7059 18.112 12.8482 18.1109C12.8668 18.1101 12.8846 18.1032 12.8989 18.0914C12.9132 18.0795 12.9234 18.0634 12.9277 18.0453L12.9815 17.7827L12.992 17.7316L13.056 17.4181C13.0581 17.4102 13.0582 17.4019 13.0564 17.3939C13.0547 17.3858 13.0511 17.3784 13.0459 17.372C13.0407 17.3656 13.0341 17.3606 13.0266 17.3573C13.0191 17.3539 13.0109 17.3524 13.0027 17.3528H11.8091C11.3343 17.3528 11.1934 17.2267 11.2454 16.8558H13.1534L13.1532 16.8559L13.1545 16.8558C13.1696 16.8552 13.1842 16.8502 13.1965 16.8415C13.2089 16.8327 13.2184 16.8206 13.224 16.8066L13.2285 16.79L13.2284 16.7902C13.5116 15.7216 13.4304 15.0019 12.2168 15.0017ZM6.15273 16.1514L6.13461 16.2153L5.99055 16.7261L5.84648 17.2366C5.84052 17.2546 5.82921 17.2704 5.81405 17.2819C5.7989 17.2933 5.78062 17.2999 5.76164 17.3008H4.99914C4.4207 17.3008 4.27976 16.8483 4.4207 16.1811C4.56148 15.4986 4.83758 15.0744 5.40695 15.0314C6.18508 14.9727 6.3407 15.5198 6.15273 16.1514ZM6.67586 17.2616C6.67586 17.2616 7.03539 16.3884 7.11695 15.8844C7.22836 15.2095 6.89039 14.2305 5.58508 14.2305C4.28726 14.2305 3.72351 15.165 3.50851 16.1811C3.29351 17.2045 3.57523 18.1019 4.8657 18.0945L5.88383 18.0908L6.83523 18.0873C6.85409 18.0864 6.87221 18.0797 6.88713 18.0681C6.90205 18.0566 6.91306 18.0407 6.91867 18.0227L7.08445 17.3905C7.09367 17.3548 7.07133 17.3258 7.03461 17.3255L6.8757 17.3245L6.7168 17.3236C6.6857 17.3234 6.66789 17.3031 6.67164 17.2764L6.67586 17.2616ZM13.1009 16.677C13.1009 16.6828 13.0997 16.6885 13.0976 16.6938C13.0954 16.6991 13.0922 16.7039 13.0881 16.708C13.084 16.7121 13.0792 16.7153 13.0739 16.7175C13.0686 16.7197 13.0629 16.7208 13.0572 16.7209C13.0514 16.7209 13.0457 16.7197 13.0404 16.7176C13.0351 16.7154 13.0303 16.7122 13.0262 16.7081C13.0222 16.704 13.0189 16.6992 13.0167 16.6939C13.0145 16.6886 13.0134 16.6829 13.0134 16.6772C13.0133 16.6656 13.0179 16.6544 13.0261 16.6462C13.0343 16.638 13.0454 16.6334 13.057 16.6334C13.0686 16.6333 13.0798 16.6379 13.088 16.6461C13.0962 16.6543 13.1008 16.6654 13.1009 16.677Z" fill="#131B28"/>
</g>
<defs>
<clipPath id="clip0_401_79">
<rect width="20" height="20" fill="white"/>
</clipPath>
</defs>
</svg>
