<svg width="20" height="20" viewBox="0 0 20 20" fill="none" xmlns="http://www.w3.org/2000/svg">
<g clip-path="url(#clip0_388_45)">
<path d="M3.54172 0.25H16.4583C18.4167 0.25 20 1.83328 20 3.79172V16.2083C20 18.1667 18.4167 19.75 16.4583 19.75H3.54172C1.58328 19.75 0 18.1667 0 16.2083V3.79172C0 1.83328 1.58328 0.25 3.54172 0.25Z" fill="#001E36"/>
<path d="M7.16672 5.20801C6.91672 5.20801 6.66672 5.20801 6.40844 5.21645C6.15 5.22473 5.90828 5.22473 5.68328 5.23316C5.45828 5.24145 5.25 5.24145 5.05 5.24973C4.85828 5.25801 4.725 5.25801 4.58328 5.25801C4.525 5.25801 4.5 5.29129 4.5 5.34973V13.9247C4.5 13.9997 4.53328 14.0332 4.6 14.0332H6.21672C6.275 14.0247 6.31672 13.9747 6.30828 13.9164V11.2414C6.46656 11.2414 6.58328 11.2414 6.66672 11.2497C6.75 11.258 6.88328 11.258 7.08328 11.258C7.76672 11.258 8.39172 11.183 8.95828 10.9747C9.5 10.7747 9.96672 10.4247 10.3 9.95801C10.6333 9.49134 10.8 8.89967 10.8 8.18301C10.8 7.80801 10.7334 7.44973 10.6084 7.09973C10.476 6.74315 10.2685 6.41918 10 6.14973C9.6831 5.84186 9.30163 5.6084 8.88328 5.46629C8.41656 5.29129 7.85 5.20801 7.16672 5.20801ZM7.35266 6.84941C7.64953 6.85504 7.93859 6.90691 8.20828 7.01629C8.45 7.10801 8.65 7.27473 8.79172 7.49129C8.92463 7.71542 8.99112 7.9727 8.98344 8.23316C8.98344 8.59973 8.9 8.88316 8.725 9.09145C8.54156 9.29973 8.30828 9.45816 8.04172 9.53316C7.73328 9.63316 7.40828 9.68301 7.08328 9.68301H6.64156C6.54156 9.68301 6.43344 9.67473 6.31672 9.66645V6.86645C6.375 6.85801 6.49172 6.84973 6.65844 6.85816C6.81672 6.84973 7.00828 6.84973 7.225 6.84973C7.26771 6.84868 7.31026 6.84858 7.35266 6.84941ZM14.3417 7.27488C13.75 7.27488 13.2583 7.36644 12.8667 7.56644C12.5084 7.73316 12.2 7.99973 11.9917 8.33301C11.8084 8.64145 11.7083 8.98301 11.7083 9.34145C11.7012 9.63625 11.767 9.92824 11.9 10.1914C12.0559 10.4717 12.2723 10.7137 12.5334 10.8997C12.9 11.1505 13.2978 11.3522 13.7167 11.4997C14.125 11.658 14.4 11.783 14.5334 11.8913C14.6667 11.9997 14.7334 12.108 14.7334 12.2247C14.7334 12.3747 14.6417 12.5164 14.5084 12.5747C14.3584 12.6497 14.1334 12.6914 13.8167 12.6914C13.4834 12.6914 13.15 12.6497 12.8333 12.5664C12.4696 12.4852 12.121 12.3475 11.8 12.1582C11.775 12.1414 11.75 12.1332 11.725 12.1499C11.7 12.1664 11.6917 12.1997 11.6917 12.2247V13.6747C11.6834 13.7414 11.725 13.7997 11.7834 13.833C12.0537 13.9593 12.3395 14.0489 12.6334 14.0997C13.0084 14.1747 13.3833 14.208 13.7666 14.208C14.3666 14.208 14.8667 14.1164 15.275 13.9414C15.65 13.7914 15.975 13.5332 16.2083 13.1997C16.4268 12.8719 16.5401 12.4853 16.5333 12.0914C16.5415 11.7939 16.4757 11.499 16.3417 11.2332C16.1833 10.9497 15.9583 10.7164 15.6833 10.5414C15.281 10.2888 14.8502 10.0846 14.4 9.93301C14.1989 9.84979 14.0015 9.75804 13.8083 9.65801C13.7 9.59973 13.6 9.52473 13.525 9.43301C13.475 9.36629 13.4417 9.29145 13.4417 9.21645C13.4417 9.14145 13.4667 9.05816 13.5083 8.99145C13.5667 8.90816 13.6583 8.84973 13.7666 8.82473C13.925 8.78316 14.1 8.75801 14.2666 8.76629C14.5833 8.76629 14.8916 8.80801 15.2 8.87473C15.4834 8.93301 15.75 9.02473 16 9.15816C16.0333 9.17473 16.075 9.17473 16.15 9.15816C16.163 9.14851 16.1736 9.13593 16.1808 9.12143C16.1881 9.10694 16.1918 9.09093 16.1917 9.07473V7.71645C16.1917 7.68301 16.1833 7.64973 16.175 7.61645C16.1583 7.58316 16.125 7.54973 16.0917 7.54145C15.8619 7.4475 15.621 7.38308 15.375 7.34973C15.0328 7.2999 14.6875 7.275 14.3417 7.27488Z" fill="#31A8FF"/>
</g>
<defs>
<clipPath id="clip0_388_45">
<rect width="20" height="20" fill="white"/>
</clipPath>
</defs>
</svg>
