<svg width="20" height="20" viewBox="0 0 20 20" fill="none" xmlns="http://www.w3.org/2000/svg">
<g clip-path="url(#clip0_388_43)">
<path d="M3.54156 0.25C1.58328 0.25 0 1.83344 0 3.79187V16.2081C0 18.1666 1.58328 19.75 3.54156 19.75H16.4584C18.4167 19.75 20 18.1666 20 16.2081V3.79187C20 1.83344 18.4167 0.25 16.4584 0.25H3.54156ZM7.16672 5.20844C7.85 5.20844 8.41672 5.29156 8.88328 5.46656C9.30164 5.60872 9.68311 5.84223 10 6.15016C10.2685 6.41956 10.476 6.74348 10.6084 7.1C10.7334 7.45 10.7998 7.80828 10.7998 8.18328C10.7998 8.89995 10.6332 9.49162 10.2998 9.95828C9.96672 10.4248 9.50016 10.775 8.95844 10.975C8.39172 11.1834 7.76672 11.2583 7.08344 11.2583C6.88344 11.2583 6.74984 11.2583 6.66656 11.25C6.58328 11.2417 6.46656 11.2417 6.30828 11.2417V13.9167C6.31656 13.975 6.275 14.0252 6.21672 14.0334H4.6C4.53344 14.0334 4.50031 13.9998 4.50031 13.9248V5.35C4.50031 5.29172 4.52531 5.25813 4.58359 5.25813C4.72531 5.25813 4.85859 5.25812 5.05016 5.25C5.25016 5.24156 5.45844 5.24187 5.68344 5.23344C5.90844 5.22516 6.15016 5.225 6.40844 5.21672C6.66687 5.20828 6.91672 5.20844 7.16672 5.20844ZM7.35266 6.84969C7.31011 6.84888 7.26755 6.84898 7.225 6.85C7.00844 6.85 6.81672 6.85016 6.65828 6.85859C6.49172 6.85016 6.37516 6.85844 6.31688 6.86672V9.66672C6.43344 9.67516 6.54156 9.68328 6.64156 9.68328H7.08344C7.40844 9.68328 7.73344 9.63328 8.04172 9.53328C8.30844 9.45828 8.54172 9.29984 8.725 9.09156C8.9 8.88313 8.98344 8.6 8.98344 8.23328C8.99111 7.97294 8.92467 7.71577 8.79188 7.49172C8.65016 7.27516 8.45 7.10828 8.20828 7.01672C7.93844 6.90734 7.64953 6.85547 7.35266 6.84969ZM14.3417 7.27516C14.6834 7.27516 15.0334 7.29984 15.375 7.34984C15.625 7.38313 15.8666 7.45016 16.0916 7.54188C16.125 7.55016 16.1583 7.58328 16.1748 7.61656C16.1833 7.64984 16.1917 7.68328 16.1917 7.71656V9.075C16.1918 9.09117 16.1881 9.10713 16.1809 9.1216C16.1736 9.13606 16.1631 9.14863 16.1502 9.15828C16.0752 9.175 16.0334 9.175 16.0002 9.15828C15.7502 9.025 15.4833 8.93344 15.1998 8.87516C14.8916 8.80844 14.5833 8.76656 14.2667 8.76656C14.1 8.75813 13.9248 8.78344 13.7666 8.825C13.6581 8.85 13.5666 8.90844 13.5083 8.99172C13.4667 9.05844 13.4417 9.14172 13.4417 9.21672C13.4417 9.29172 13.4752 9.36672 13.5252 9.43328C13.6002 9.525 13.7 9.60016 13.8083 9.65859C14.0015 9.75847 14.199 9.85006 14.4 9.93313C14.85 10.0831 15.2833 10.2917 15.6833 10.5417C15.9583 10.7167 16.1833 10.9502 16.3416 11.2334C16.4756 11.4992 16.5416 11.7941 16.5334 12.0917C16.5402 12.4856 16.4267 12.8722 16.2081 13.2C15.9758 13.5326 15.6515 13.7903 15.275 13.9416C14.8666 14.1166 14.3666 14.2083 13.7666 14.2083C13.3831 14.2083 13.0084 14.175 12.6334 14.1C12.3395 14.0492 12.0537 13.9595 11.7834 13.8333C11.7252 13.8 11.6833 13.7416 11.6916 13.6748V12.225C11.6916 12.2 11.6998 12.1666 11.7248 12.15C11.7498 12.1333 11.7748 12.1419 11.7998 12.1584C12.1208 12.3478 12.4696 12.4856 12.8333 12.5669C13.15 12.6502 13.4834 12.6917 13.8169 12.6917C14.1334 12.6917 14.3584 12.65 14.5084 12.575C14.6417 12.5167 14.7333 12.375 14.7333 12.225C14.7333 12.1084 14.6667 11.9998 14.5333 11.8914C14.4 11.7831 14.125 11.6583 13.7167 11.5C13.2978 11.3525 12.8999 11.1507 12.5333 10.9C12.2722 10.7139 12.0558 10.472 11.9 10.1917C11.767 9.92852 11.7012 9.63652 11.7084 9.34172C11.7084 8.98344 11.8083 8.64172 11.9916 8.33344C12.1998 8.00016 12.5084 7.73344 12.8669 7.56688C13.2584 7.36688 13.7498 7.27516 14.3417 7.27516Z" fill="white"/>
</g>
<defs>
<clipPath id="clip0_388_43">
<rect width="20" height="20" fill="white"/>
</clipPath>
</defs>
</svg>
